<svg width="51" height="48" viewBox="0 0 51 48" fill="none" xmlns="http://www.w3.org/2000/svg">
  <path fill-rule="evenodd" clip-rule="evenodd" d="M25.5 0C11.4225 0 0 11.0063 0 24.5738C0 35.4387 7.30875 44.6363 17.4463 47.8962C18.7213 48.1237 19.1888 47.3587 19.1888 46.7025C19.1888 46.1063 19.1662 44.0775 19.155 41.9625C12.0562 43.4325 10.5638 38.9025 10.5638 38.9025C9.40125 36.0863 7.71375 35.325 7.71375 35.325C5.37375 33.7387 7.89 33.7688 7.89 33.7688C10.4775 33.9488 11.8387 36.3825 11.8387 36.3825C14.1188 40.2713 17.7413 39.2025 19.2337 38.5688C19.4625 36.9488 20.1113 35.88 20.8237 35.2763C15.1725 34.665 9.2475 32.5725 9.2475 23.1975C9.2475 20.5275 10.2488 18.345 11.8837 16.6313C11.6212 16.02 10.7587 13.5375 12.1312 10.1513C12.1312 10.1513 14.2763 9.50625 19.125 12.6938C21.165 12.1538 23.34 11.8838 25.5 11.8725C27.66 11.8838 29.8387 12.1538 31.8825 12.6938C36.7237 9.50625 38.8662 10.1513 38.8662 10.1513C40.2413 13.5375 39.3787 16.02 39.1162 16.6313C40.7587 18.345 41.7525 20.5275 41.7525 23.1975C41.7525 32.5988 35.8162 34.6575 30.1462 35.2538C31.0387 36.0075 31.8375 37.4925 31.8375 39.7538C31.8375 42.9863 31.8112 45.5888 31.8112 46.7025C31.8112 47.365 32.2688 48.1388 33.5663 47.8925C43.7025 44.6288 51 35.4313 51 24.5738C51 11.0063 39.5812 0 25.5 0Z" fill="#24292F"/>
</svg>
