<svg xmlns="http://www.w3.org/2000/svg" viewBox="0 0 104 104">
    <path fill="#757575" fill-rule="evenodd" d="M40.402 33.312S39.642 28 51.827 28c12.734 0 11.75 6.404 11.75 6.404v10.583c0 6.4-6.48 6.296-6.48 6.296H45.566c-6.916 0-6.697 6.841-6.697 6.841v5.735h-4.062S28 64.298 28 51.94s7.797-11.471 7.797-11.471h16.247v-1.653H40.416zm7.105.492a2.095 2.095 0 0 0-2.092-2.103c-1.157 0-2.092.94-2.092 2.103s.935 2.103 2.092 2.103 2.092-.94 2.092-2.103"/>
    <path fill="#757575" fill-rule="evenodd" d="M63.599 70.688S64.359 76 52.174 76c-12.734 0-11.75-6.404-11.75-6.404V59.013c0-6.401 6.48-6.296 6.48-6.296h11.533c6.916 0 6.697-6.841 6.697-6.841V40.14h4.061s6.806-.439 6.806 11.92-7.797 11.471-7.797 11.471H51.957v1.653h11.628zm-7.105-.492c0 1.163.935 2.103 2.092 2.103s2.092-.94 2.092-2.103a2.095 2.095 0 0 0-2.092-2.102c-1.157 0-2.092.94-2.092 2.102"/>
  </svg>