<svg xmlns="http://www.w3.org/2000/svg" viewBox="0 0 104 104">
    <path fill="#757575" d="M26 52V26h52v52H26"/>
    <path fill="#fff" d="M37.406 52.092v2.119h6.76v19.24h4.797V54.21h6.76v-2.08c0-1.17 0-2.12-.052-2.145 0-.04-4.12-.052-9.126-.052l-9.1.039v2.132zm30.381-2.171c1.326.312 2.34.91 3.25 1.859.481.52 1.196 1.43 1.248 1.664 0 .078-2.249 1.599-3.614 2.444-.052.039-.26-.182-.468-.52-.676-.962-1.365-1.378-2.444-1.456-1.56-.104-2.6.715-2.6 2.08 0 .416.078.65.234.988.351.715 1.001 1.144 3.016 2.028 3.718 1.599 5.33 2.652 6.305 4.16 1.105 1.69 1.352 4.342.611 6.33-.832 2.172-2.86 3.64-5.759 4.122-.91.156-2.99.13-3.965-.04-2.08-.39-4.069-1.43-5.29-2.768-.482-.52-1.405-1.911-1.353-2.002l.494-.312 1.95-1.131 1.47-.858.337.455c.43.676 1.391 1.586 1.95 1.898 1.69.87 3.952.754 5.07-.26.481-.442.69-.91.69-1.56 0-.598-.092-.871-.39-1.326-.417-.572-1.249-1.04-3.589-2.08-2.69-1.144-3.835-1.872-4.9-2.99-.612-.676-1.17-1.73-1.43-2.6-.196-.754-.26-2.6-.079-3.341.56-2.6 2.522-4.42 5.33-4.94.91-.182 3.055-.104 3.952.13z"/>
  </svg>